<mxfile host="app.diagrams.net" agent="Mozilla/5.0 (X11; Ubuntu; Linux x86_64; rv:133.0) Gecko/20100101 Firefox/133.0" version="26.0.4">
  <diagram name="Page-1" id="zt0GWRvvx2OLJS2hz8Ce">
    <mxGraphModel dx="1368" dy="790" grid="1" gridSize="10" guides="1" tooltips="1" connect="1" arrows="1" fold="1" page="1" pageScale="1" pageWidth="850" pageHeight="1100" math="0" shadow="0">
      <root>
        <mxCell id="0" />
        <mxCell id="1" parent="0" />
        <mxCell id="FB4ZD-GLQehuT4-bvxEd-37" value="" style="edgeStyle=orthogonalEdgeStyle;rounded=0;orthogonalLoop=1;jettySize=auto;html=1;" edge="1" parent="1" source="FB4ZD-GLQehuT4-bvxEd-11" target="FB4ZD-GLQehuT4-bvxEd-13">
          <mxGeometry relative="1" as="geometry" />
        </mxCell>
        <mxCell id="FB4ZD-GLQehuT4-bvxEd-11" value="" style="shape=ellipse;html=1;fontSize=18;" vertex="1" parent="1">
          <mxGeometry x="230" y="95" width="10" height="10" as="geometry" />
        </mxCell>
        <mxCell id="FB4ZD-GLQehuT4-bvxEd-40" value="" style="edgeStyle=orthogonalEdgeStyle;rounded=0;orthogonalLoop=1;jettySize=auto;html=1;" edge="1" parent="1" source="FB4ZD-GLQehuT4-bvxEd-13" target="FB4ZD-GLQehuT4-bvxEd-38">
          <mxGeometry relative="1" as="geometry" />
        </mxCell>
        <mxCell id="FB4ZD-GLQehuT4-bvxEd-13" value="Unsynced" style="rounded=1;whiteSpace=wrap;html=1;fontSize=12;glass=0;strokeWidth=1;shadow=0;" vertex="1" parent="1">
          <mxGeometry x="280" y="80" width="120" height="40" as="geometry" />
        </mxCell>
        <mxCell id="FB4ZD-GLQehuT4-bvxEd-42" style="edgeStyle=orthogonalEdgeStyle;rounded=0;orthogonalLoop=1;jettySize=auto;html=1;exitX=1;exitY=0.5;exitDx=0;exitDy=0;entryX=1;entryY=0.5;entryDx=0;entryDy=0;" edge="1" parent="1" source="FB4ZD-GLQehuT4-bvxEd-19" target="FB4ZD-GLQehuT4-bvxEd-38">
          <mxGeometry relative="1" as="geometry">
            <Array as="points">
              <mxPoint x="600" y="200" />
              <mxPoint x="600" y="100" />
            </Array>
          </mxGeometry>
        </mxCell>
        <mxCell id="FB4ZD-GLQehuT4-bvxEd-43" value="No" style="edgeLabel;html=1;align=center;verticalAlign=middle;resizable=0;points=[];" vertex="1" connectable="0" parent="FB4ZD-GLQehuT4-bvxEd-42">
          <mxGeometry x="-0.7765" relative="1" as="geometry">
            <mxPoint y="-2" as="offset" />
          </mxGeometry>
        </mxCell>
        <mxCell id="FB4ZD-GLQehuT4-bvxEd-44" style="edgeStyle=orthogonalEdgeStyle;rounded=0;orthogonalLoop=1;jettySize=auto;html=1;exitX=0;exitY=0.5;exitDx=0;exitDy=0;entryX=0.5;entryY=1;entryDx=0;entryDy=0;" edge="1" parent="1" source="FB4ZD-GLQehuT4-bvxEd-19" target="FB4ZD-GLQehuT4-bvxEd-13">
          <mxGeometry relative="1" as="geometry" />
        </mxCell>
        <mxCell id="FB4ZD-GLQehuT4-bvxEd-45" value="Yes" style="edgeLabel;html=1;align=center;verticalAlign=middle;resizable=0;points=[];" vertex="1" connectable="0" parent="FB4ZD-GLQehuT4-bvxEd-44">
          <mxGeometry x="-0.73" y="1" relative="1" as="geometry">
            <mxPoint y="-3" as="offset" />
          </mxGeometry>
        </mxCell>
        <mxCell id="FB4ZD-GLQehuT4-bvxEd-19" value="Timer expired?" style="rhombus;whiteSpace=wrap;html=1;shadow=0;fontFamily=Helvetica;fontSize=12;align=center;strokeWidth=1;spacing=6;spacingTop=-4;" vertex="1" parent="1">
          <mxGeometry x="460" y="160" width="100" height="80" as="geometry" />
        </mxCell>
        <mxCell id="FB4ZD-GLQehuT4-bvxEd-41" value="" style="edgeStyle=orthogonalEdgeStyle;rounded=0;orthogonalLoop=1;jettySize=auto;html=1;" edge="1" parent="1" source="FB4ZD-GLQehuT4-bvxEd-38" target="FB4ZD-GLQehuT4-bvxEd-19">
          <mxGeometry relative="1" as="geometry" />
        </mxCell>
        <mxCell id="FB4ZD-GLQehuT4-bvxEd-38" value="Synced" style="rounded=1;whiteSpace=wrap;html=1;fontSize=12;glass=0;strokeWidth=1;shadow=0;" vertex="1" parent="1">
          <mxGeometry x="450" y="80" width="120" height="40" as="geometry" />
        </mxCell>
      </root>
    </mxGraphModel>
  </diagram>
</mxfile>
